HIERARCHY
ROOT Hips
{
	OFFSET -0.001795 -0.223333 0.028219
	CHANNELS 6 Xposition Yposition Zposition Zrotation Yrotation Xrotation 
	JOINT LeftUpLeg
	{
		OFFSET 0.069520 -0.091406 -0.006815
		CHANNELS 3 Zrotation Yrotation Xrotation
		JOINT LeftLeg
		{
			OFFSET 0.034277 -0.375199 -0.004496
			CHANNELS 3 Zrotation Yrotation Xrotation
			JOINT LeftFoot
			{
				OFFSET -0.013596 -0.397961 -0.043693
				CHANNELS 3 Zrotation Yrotation Xrotation
				JOINT LeftToe
				{
					OFFSET 0.026358 -0.055791 0.119288
					CHANNELS 3 Zrotation Yrotation Xrotation
					End Site
					{
						OFFSET 0.000000 0.000000 0.000000
					}
				}
			}
		}
	}
	JOINT RightUpLeg
	{
		OFFSET -0.067670 -0.090522 -0.004320
		CHANNELS 3 Zrotation Yrotation Xrotation
		JOINT RightLeg
		{
			OFFSET -0.038290 -0.382569 -0.008850
			CHANNELS 3 Zrotation Yrotation Xrotation
			JOINT RightFoot
			{
				OFFSET 0.015774 -0.398415 -0.042312
				CHANNELS 3 Zrotation Yrotation Xrotation
				JOINT RightToe
				{
					OFFSET -0.025372 -0.048144 0.123348
					CHANNELS 3 Zrotation Yrotation Xrotation
					End Site
					{
						OFFSET 0.000000 0.000000 0.000000
					}
				}
			}
		}
	}
	JOINT Spine
	{
		OFFSET -0.002533 0.108963 -0.026696
		CHANNELS 3 Zrotation Yrotation Xrotation
		JOINT Spine1
		{
			OFFSET 0.005487 0.135180 0.001092
			CHANNELS 3 Zrotation Yrotation Xrotation
			JOINT Spine2
			{
				OFFSET 0.001457 0.052922 0.025425
				CHANNELS 3 Zrotation Yrotation Xrotation
				JOINT Neck
				{
					OFFSET -0.002778 0.213870 -0.042857
					CHANNELS 3 Zrotation Yrotation Xrotation
					JOINT Head
					{
						OFFSET 0.005152 0.064970 0.051349
						CHANNELS 3 Zrotation Yrotation Xrotation
						End Site
						{
							OFFSET 0.000000 0.000000 0.000000
						}
					}
				}
				JOINT LeftShoulder
				{
					OFFSET 0.078845 0.121749 -0.034090
					CHANNELS 3 Zrotation Yrotation Xrotation
					JOINT LeftArm
					{
						OFFSET 0.090977 0.030469 -0.008868
						CHANNELS 3 Zrotation Yrotation Xrotation
						JOINT LeftForeArm
						{
							OFFSET 0.259612 -0.012772 -0.027456
							CHANNELS 3 Zrotation Yrotation Xrotation
							JOINT LeftHand
							{
								OFFSET 0.249234 0.008986 -0.001171
								CHANNELS 3 Zrotation Yrotation Xrotation
								End Site
								{
									OFFSET 0.000000 0.000000 0.000000
								}
							}
						}
					}
				}
				JOINT RightShoulder
				{
					OFFSET -0.081759 0.118833 -0.038615
					CHANNELS 3 Zrotation Yrotation Xrotation
					JOINT RightArm
					{
						OFFSET -0.096012 0.032551 -0.009143
						CHANNELS 3 Zrotation Yrotation Xrotation
						JOINT RightForeArm
						{
							OFFSET -0.253742 -0.013329 -0.021401
							CHANNELS 3 Zrotation Yrotation Xrotation
							JOINT RightHand
							{
								OFFSET -0.255298 0.007772 -0.005559
								CHANNELS 3 Zrotation Yrotation Xrotation
								End Site
								{
									OFFSET 0.000000 0.000000 0.000000
								}
							}
						}
					}
				}
			}
		}
	}
}
MOTION
Frames: 10
Frame Time: 0.050000
0.000000 0.949564 0.000000 -0.748659 2.800288 3.343223 -2.714348 0.533816 4.168463 4.554770 0.116080 -8.169861 -5.322523 -4.083312 11.623941 0.000000 0.000000 0.000000 3.874694 -0.526143 3.033463 -3.152542 -0.138786 -7.070253 6.638449 9.216535 10.815402 0.000000 0.000000 0.000000 1.955825 0.080721 -2.132547 0.172458 -0.293257 4.987868 -2.613087 0.708282 1.363232 2.712409 -0.008307 -17.765804 0.000000 0.000000 0.000000 -25.592457 -6.082880 0.057821 -11.591477 4.656154 -1.371897 11.356941 -8.741187 -0.530855 0.000000 0.000000 0.000000 20.990738 1.436617 -0.530214 19.969677 -9.375919 -2.980427 -11.574271 15.218081 -0.767213 0.000000 0.000000 0.000000 
0.001810 0.948153 0.001011 -0.921861 2.283466 3.380457 -2.425129 0.552294 4.491193 4.048922 0.160427 -8.591090 -5.009909 -3.822871 11.230311 0.000000 0.000000 0.000000 3.213052 -0.463903 2.834553 -1.938497 -0.173866 -6.702084 6.815037 9.736633 10.452974 0.000000 0.000000 0.000000 2.532623 0.050990 -1.662511 -0.751403 0.169560 6.185203 -2.595553 0.460134 0.295109 2.088509 0.635308 -21.331652 0.000000 0.000000 0.000000 -24.348177 -6.732075 0.676127 -12.836619 4.900392 -1.558789 10.601654 -8.097484 -0.431815 0.000000 0.000000 0.000000 22.135727 1.034838 -1.013133 21.070600 -9.455885 -3.122307 -13.062575 15.067327 -0.927046 0.000000 0.000000 0.000000 
0.003676 0.947502 0.002318 -0.900606 1.535503 3.264720 -1.651093 0.514819 4.586628 2.239577 0.196923 -8.220275 -4.656447 -3.469873 10.927577 0.000000 0.000000 0.000000 2.871537 -0.527129 3.466526 -1.753590 -0.230119 -7.524805 7.236967 10.373756 10.654681 0.000000 0.000000 0.000000 3.162791 0.028844 -1.365235 -1.427096 0.608667 3.616390 -2.757670 0.854714 2.702067 3.084033 0.060845 -21.075243 0.000000 0.000000 0.000000 -23.446090 -7.664625 1.367443 -15.114048 6.620689 -2.085054 8.421107 -10.763850 -0.391891 0.000000 0.000000 0.000000 22.166433 2.302770 -0.175069 22.783483 -9.544947 -3.536968 -14.251229 15.011835 -1.049572 0.000000 0.000000 0.000000 
0.005588 0.947499 0.004147 -1.001807 1.474091 3.442203 -1.441183 0.542069 4.977900 1.829247 0.249675 -9.031910 -4.739169 -3.481155 11.208117 0.000000 0.000000 0.000000 2.676612 -0.551259 3.738307 -1.440830 -0.277097 -8.153372 7.388221 10.444044 11.007942 0.000000 0.000000 0.000000 2.944755 0.032346 -1.416663 -1.555180 0.668895 3.966030 -2.181732 0.599660 2.305961 2.540752 0.428681 -22.343820 0.000000 0.000000 0.000000 -25.413981 -8.016034 1.605380 -15.082476 7.598215 -2.163320 8.291871 -10.653364 -0.368624 0.000000 0.000000 0.000000 23.475944 3.358748 0.239748 22.595435 -11.270252 -3.700660 -14.761078 14.815111 -1.101497 0.000000 0.000000 0.000000 
0.007827 0.947614 0.006279 -0.811038 1.361071 3.540016 -1.504653 0.580214 5.299004 1.290093 0.285068 -9.509362 -4.825516 -3.483751 11.532278 0.000000 0.000000 0.000000 2.405914 -0.579458 4.099991 -1.617910 -0.303518 -8.743772 7.488078 10.506836 11.196270 0.000000 0.000000 0.000000 2.769174 0.034958 -1.447694 -1.257118 0.511290 4.211573 -2.347131 0.590094 1.163155 2.735075 0.233604 -21.199946 0.000000 0.000000 0.000000 -26.260751 -8.149823 1.597638 -15.666099 8.672734 -2.320948 7.324867 -12.251475 -0.326672 0.000000 0.000000 0.000000 23.457554 3.074137 0.025016 23.751504 -10.581486 -3.771671 -15.246777 14.240020 -1.090806 0.000000 0.000000 0.000000 
0.010398 0.947113 0.008652 -0.844941 1.565676 3.412234 -1.581864 0.626254 5.709647 1.255781 0.294110 -9.729035 -4.925255 -3.684299 11.418730 0.000000 0.000000 0.000000 1.967840 -0.601026 4.523948 -1.022289 -0.331287 -8.925714 7.424765 10.430107 11.161589 0.000000 0.000000 0.000000 2.422481 0.019525 -1.133839 -1.002103 0.365094 4.618490 -1.847053 0.031405 0.443029 2.621697 0.285645 -21.681100 0.000000 0.000000 0.000000 -26.901585 -8.161708 1.762309 -17.381887 8.911088 -2.657074 7.130518 -12.635248 -0.310815 0.000000 0.000000 0.000000 23.569062 4.066875 0.397432 24.876500 -10.282492 -3.864019 -16.312389 13.293679 -1.108364 0.000000 0.000000 0.000000 
0.013243 0.946987 0.011066 -0.895672 1.215191 3.704243 -1.569305 0.647231 5.891373 0.911935 0.325092 -10.277210 -4.844612 -3.498159 11.609718 0.000000 0.000000 0.000000 1.817891 -0.591655 4.527796 -1.063922 -0.346176 -9.266714 7.623019 10.671428 11.332751 0.000000 0.000000 0.000000 2.430333 0.020683 -1.191859 -0.879160 0.315342 4.270135 -1.768272 0.162463 0.492159 2.938345 0.117115 -21.721623 0.000000 0.000000 0.000000 -27.421328 -8.123415 1.745547 -18.717051 9.590970 -2.975600 6.560816 -13.633472 -0.271533 0.000000 0.000000 0.000000 23.663153 4.169472 0.436633 25.799030 -9.799815 -3.944920 -16.336964 12.822022 -1.057855 0.000000 0.000000 0.000000 
0.016292 0.946431 0.013566 -1.175080 1.084543 3.963223 -1.397272 0.638997 5.923843 0.754779 0.337828 -10.521042 -4.749639 -3.439240 11.437675 0.000000 0.000000 0.000000 1.773946 -0.563676 4.308424 -0.822068 -0.344212 -9.106789 7.668730 10.800171 11.255025 0.000000 0.000000 0.000000 2.608632 0.017518 -1.210870 -0.824910 0.291717 4.161535 -1.481074 0.047728 0.390318 2.935479 0.122773 -22.031393 0.000000 0.000000 0.000000 -27.777979 -7.898632 1.683157 -20.268249 10.049077 -3.332369 6.229800 -14.036159 -0.238614 0.000000 0.000000 0.000000 24.321599 4.643250 0.605686 26.507796 -9.198530 -3.942867 -17.136939 11.612001 -0.990974 0.000000 0.000000 0.000000 
0.019422 0.946150 0.016526 -1.358024 1.024910 4.125287 -1.226528 0.646687 6.123306 0.428225 0.353659 -10.826008 -4.751582 -3.451020 11.438881 0.000000 0.000000 0.000000 1.714815 -0.574468 4.428206 -0.739749 -0.355445 -9.299520 7.733100 10.861444 11.348381 0.000000 0.000000 0.000000 2.633599 0.020623 -1.288501 -0.799142 0.275039 4.330173 -1.297901 0.273944 0.363519 3.059509 0.070227 -21.979486 0.000000 0.000000 0.000000 -27.981594 -8.251553 1.842108 -21.588427 10.485696 -3.632638 6.186284 -14.127108 -0.237163 0.000000 0.000000 0.000000 25.167233 5.027267 0.859180 26.962378 -9.028600 -4.001991 -17.612240 10.692742 -0.910199 0.000000 0.000000 0.000000 
0.022534 0.945635 0.020230 -1.556455 1.204911 4.319584 -1.089268 0.662102 6.396902 0.259051 0.369153 -11.272977 -4.859088 -3.623713 11.418302 0.000000 0.000000 0.000000 1.721908 -0.650330 5.050961 -0.681186 -0.407159 -10.335625 7.797563 10.763529 11.729954 0.000000 0.000000 0.000000 2.474170 0.046164 -1.699632 -0.619171 0.164798 4.807905 -1.153683 0.550045 0.223308 2.866550 0.189290 -21.785800 0.000000 0.000000 0.000000 -28.254143 -8.292723 1.716639 -22.863341 10.869941 -3.908384 6.624796 -14.669388 -0.307329 0.000000 0.000000 0.000000 26.078782 5.174921 1.036500 27.478723 -8.944405 -4.096149 -17.658936 9.959429 -0.813601 0.000000 0.000000 0.000000 
